<svg xmlns="http://www.w3.org/2000/svg" width="48" height="48" viewBox="0 0 48 48"><g transform="translate(-868 -2671)"><circle cx="24" cy="24" r="24" transform="translate(868 2671)" fill="#12609f"/><g transform="translate(877.591 2680.598)"><g transform="translate(0 0)"><path d="M28.818,10.5v7.827c-.007.061-.018.12-.02.18q-.032.884-.061,1.772a12.447,12.447,0,0,1-.282,2.285,7.511,7.511,0,0,1-2.9,4.55,8.356,8.356,0,0,1-4.375,1.538c-.925.079-1.854.086-2.783.127-.073,0-.148.012-.223.02H11.364a1.815,1.815,0,0,0-.195-.025c-1-.03-2-.052-2.994-.095a10.363,10.363,0,0,1-2.817-.5A7.269,7.269,0,0,1,1.32,25.006,8.838,8.838,0,0,1,.105,20.847C.045,19.927,0,19,0,18.078c0-2.969.023-5.938.045-8.908a14.723,14.723,0,0,1,.2-2.394,8.181,8.181,0,0,1,1.31-3.369A7.6,7.6,0,0,1,6.49.284,16.659,16.659,0,0,1,9.654.014q4.751-.027,9.5,0a23.525,23.525,0,0,1,2.676.191A7.8,7.8,0,0,1,25.04,1.315,7.427,7.427,0,0,1,28.4,5.978a14.337,14.337,0,0,1,.366,3.109C28.779,9.56,28.8,10.031,28.818,10.5ZM14.383,26.215v.039c1.974-.041,3.95-.079,5.922-.129a8.161,8.161,0,0,0,2.1-.314,4.743,4.743,0,0,0,3.25-2.91,6.75,6.75,0,0,0,.456-2.11c.055-.9.107-1.8.109-2.7,0-3.235.08-6.473-.075-9.708A8.559,8.559,0,0,0,25.831,6.4a4.743,4.743,0,0,0-2.648-3.146,6.014,6.014,0,0,0-2.115-.541c-.988-.068-1.976-.13-2.966-.136-3.048-.013-6.1-.063-9.147.048a11.25,11.25,0,0,0-2.342.28A4.836,4.836,0,0,0,3.485,5.188,6.278,6.278,0,0,0,2.7,8c-.059.884-.107,1.77-.107,2.657,0,3.251-.079,6.5.077,9.751a8.167,8.167,0,0,0,.389,2.238,4.715,4.715,0,0,0,2.569,2.891,5.973,5.973,0,0,0,2.088.538c1.006.07,2.013.12,3.021.139C11.953,26.233,13.168,26.215,14.383,26.215Z" transform="translate(0 0)" fill="#fff"/><g transform="translate(6.998 6.985)"><path d="M18.729,11.315A7.406,7.406,0,1,1,11.335,3.91,7.412,7.412,0,0,1,18.729,11.315Zm-7.41,4.811A4.812,4.812,0,1,0,6.513,11.3,4.815,4.815,0,0,0,11.318,16.126Z" transform="translate(-3.917 -3.91)" fill="#fff"/></g><g transform="translate(20.352 4.983)"><path d="M14.852,4.522a1.73,1.73,0,1,1-1.719-1.733A1.734,1.734,0,0,1,14.852,4.522Z" transform="translate(-11.392 -2.789)" fill="#fff"/></g></g></g></g></svg>