<svg xmlns="http://www.w3.org/2000/svg" width="23.618" height="23.606" viewBox="0 0 23.618 23.606"><g transform="translate(8.065 8.062)"><g transform="translate(-8.066 -8.062)"><path d="M23.618,8.609v6.414c-.006.05-.015.1-.016.148q-.026.725-.05,1.452a10.2,10.2,0,0,1-.231,1.873,6.156,6.156,0,0,1-2.375,3.729,6.848,6.848,0,0,1-3.586,1.261c-.758.064-1.52.07-2.281.1-.06,0-.122.01-.183.016H9.313a1.489,1.489,0,0,0-.16-.02c-.818-.025-1.637-.042-2.454-.078a8.493,8.493,0,0,1-2.309-.41,5.958,5.958,0,0,1-3.309-2.6,7.243,7.243,0,0,1-1-3.408C.037,16.331,0,15.572,0,14.816c0-2.433.019-4.867.037-7.3A12.066,12.066,0,0,1,.2,5.553,6.7,6.7,0,0,1,1.272,2.792,6.228,6.228,0,0,1,5.319.233,13.653,13.653,0,0,1,7.912.012q3.894-.022,7.786,0A19.28,19.28,0,0,1,17.892.17a6.393,6.393,0,0,1,2.63.908A6.086,6.086,0,0,1,23.272,4.9a11.75,11.75,0,0,1,.3,2.548C23.586,7.835,23.6,8.221,23.618,8.609ZM11.788,21.485v.032c1.618-.034,3.237-.064,4.854-.105a6.688,6.688,0,0,0,1.717-.258,3.887,3.887,0,0,0,2.663-2.385A5.532,5.532,0,0,0,21.4,17.04c.045-.736.088-1.474.089-2.212,0-2.652.066-5.3-.061-7.956a7.014,7.014,0,0,0-.253-1.625A3.887,3.887,0,0,0,19,2.668a4.928,4.928,0,0,0-1.734-.444c-.81-.056-1.619-.107-2.43-.111-2.5-.01-5-.051-7.5.04a9.22,9.22,0,0,0-1.919.23,3.963,3.963,0,0,0-2.564,1.87,5.145,5.145,0,0,0-.643,2.3C2.165,7.278,2.126,8,2.126,8.731c0,2.665-.064,5.329.063,7.991a6.693,6.693,0,0,0,.319,1.835,3.864,3.864,0,0,0,2.105,2.369,4.895,4.895,0,0,0,1.712.441c.824.057,1.65.1,2.476.114C9.8,21.5,10.792,21.485,11.788,21.485Z" transform="translate(0 0)"/><g transform="translate(5.735 5.725)"><path d="M16.056,9.979A6.07,6.07,0,1,1,10,3.91,6.075,6.075,0,0,1,16.056,9.979ZM9.983,13.922A3.944,3.944,0,1,0,6.044,9.966,3.946,3.946,0,0,0,9.983,13.922Z" transform="translate(-3.917 -3.91)"/></g><g transform="translate(16.679 4.084)"><path d="M14.228,4.209a1.418,1.418,0,1,1-1.408-1.42A1.421,1.421,0,0,1,14.228,4.209Z" transform="translate(-11.392 -2.789)"/></g></g></g></svg>