<svg xmlns="http://www.w3.org/2000/svg" xmlns:xlink="http://www.w3.org/1999/xlink" width="243.31" height="56" viewBox="0 0 243.31 56"><defs><clipPath id="a"><rect width="243.31" height="56" fill="#fff"/></clipPath></defs><g transform="translate(0 0)" clip-path="url(#a)"><path d="M145.515,29.77V24.617l3.552.209c-.024.209-.21.371-.627.44V45.88h-2.925V41.051c-1.743.766-3.412,1.463-4.644,1.95a.559.559,0,0,1-.347.464l-1.346-3.11c1.578-.464,3.968-1.3,6.337-2.135V32.556h-5.526V29.77Zm8.774,11.676c0,1.3.14,1.486.974,1.486H157.7c.906,0,1.043-.952,1.207-4.712a7.794,7.794,0,0,0,2.668,1.253c-.278,4.48-.974,6.2-3.6,6.2h-3.135c-2.67,0-3.459-.975-3.459-4.271V24.64l3.574.186c-.021.231-.209.371-.672.464v6.382a43.813,43.813,0,0,0,4.8-3.574l2.135,2.6a.743.743,0,0,1-.6.116A53.047,53.047,0,0,1,154.29,34.6Z" transform="translate(57.218 10.12)" fill="#fff"/><path d="M174.638,29.788l3.528.186c-.023.231-.209.371-.627.464V45.713h-2.9V44.227H161.314v1.555h-2.856V29.835l3.483.209c-.024.209-.186.371-.627.418V41.348H166.4V24.8l3.574.209c-.023.209-.209.371-.649.442v15.9h5.316Z" transform="translate(65.144 10.194)" fill="#fff"/><path d="M91.008,18.816c-2.578.144-3.628.811-3.868,2.961a60.347,60.347,0,0,0-.381,7.973V48.8H84.754L64.7,24.545h-.1V35.764a72.38,72.38,0,0,0,.334,7.83c.24,2.244,1.146,3.008,4.583,3.2v1.528H57.971V46.793c2.673-.19,3.818-.907,4.058-3.055a73.816,73.816,0,0,0,.381-7.974V25.6c0-3.246-.048-3.914-.955-5.012-.954-1.194-1.957-1.576-4.1-1.767V17.288h8.211L84.419,39.3h.143V29.75c0-4.3-.238-6.541-.333-7.925-.286-2.053-1.29-2.818-4.727-3.008V17.288H91.008Z" transform="translate(23.577 7.107)" fill="#fff"/><path d="M94.051,23.987A10.457,10.457,0,0,1,104.7,34.682c0,7.686-5.585,11.457-10.837,11.457-7.161,0-10.933-5.347-10.933-10.6A11.133,11.133,0,0,1,94,23.987Zm-.715,1.719c-2.292,0-4.439,2.721-4.439,8.163,0,5.921,2.148,10.5,5.489,10.5,2.244,0,4.345-1.528,4.345-8.4,0-6.254-1.909-10.264-5.347-10.264Z" transform="translate(34.092 9.861)" fill="#fff"/><path d="M122.471,25.777c-2.434.429-2.961.907-4.058,3.389-1.671,3.772-4.1,9.549-6.874,16.757h-1.672c-2.292-5.872-4.439-11.362-6.731-16.852-.955-2.34-1.48-2.818-3.868-3.295V24.393H110.3v1.384c-2.34.429-2.53.811-1.863,2.578C109.628,31.7,111.443,36.519,112.4,39c1.194-2.817,2.722-7.161,3.772-10.408.621-1.813.382-2.388-2.244-2.817V24.393h8.546Z" transform="translate(40.81 10.028)" fill="#fff"/><path d="M131.53,46.139a4.207,4.207,0,0,1-2.674-.955,4.891,4.891,0,0,1-1.192-1.909c-1.863,1.242-4.106,2.865-5.2,2.865a6.091,6.091,0,0,1-6.207-6.016c0-2.436,1.194-3.724,3.725-4.631,2.817-1,6.445-2.2,7.542-3.151V31.147c0-3.151-1.336-4.916-3.342-4.916a2.123,2.123,0,0,0-1.767.859,8.3,8.3,0,0,0-1.384,3.246,1.659,1.659,0,0,1-1.815,1.432c-1.1,0-2.626-1.05-2.626-2.292,0-.763.573-1.384,1.624-2.1a22.149,22.149,0,0,1,7.638-3.391,6.965,6.965,0,0,1,4.391,1.338c1.911,1.48,2.388,3.532,2.388,6.11v8.259c0,2.2.763,2.817,1.575,2.817a3.735,3.735,0,0,0,1.624-.429l.525,1.432Zm-4.01-12.031c-.955.525-2.244,1.194-3.247,1.719-1.623.763-2.482,1.671-2.482,3.342,0,2.578,1.815,3.629,3.055,3.629a4.6,4.6,0,0,0,2.674-1.1Z" transform="translate(47.793 9.861)" fill="#fff"/><path d="M63.213,37.847c.833-4.837-3.248-9.442-13.185-6.927C37.684,34.043,39,46.034,41.8,49.452A30.251,30.251,0,0,1,30.1,47.7c-10.784-4.03-9.533-12.824,10.116-18.614,4.874-1.437,10.458-3.665,13.667-7.547,5.242-6.344,5.131-15.388-7.47-19.868-8.6-3.059-24.9-3.6-38.511,13.5A34.673,34.673,0,0,0,.062,39.319c.913,15.4,23.725,19.535,17.3,14.87C-3.587,38.966,18.729,1.682,40.261,9.182c10.8,3.765-4.468,15.2-7.452,17.256-4,2.757-8.821,5.647-11.687,9.248-4.147,5.211-5.6,16.741,11.2,17.347a47.087,47.087,0,0,0,12.562-1.163c4.246,2.625,9.4,3.747,12.138,3.429,3.738-.436,2.726-.868-.2-1.486a16.125,16.125,0,0,1-7.2-3.387c8.008-3.035,12.83-8.166,13.589-12.58m-7.02,6.174A17.094,17.094,0,0,1,47.75,48.6c-8.894-10.664,20.532-17.858,8.443-4.576" transform="translate(0 0)" fill="#fff"/><path d="M50.318,37.806a2.851,2.851,0,1,1-3.089-2.591,2.851,2.851,0,0,1,3.089,2.591" transform="translate(18.347 14.473)" fill="#fff"/></g></svg>