<svg xmlns="http://www.w3.org/2000/svg" width="48.001" height="48" viewBox="0 0 48.001 48"><g transform="translate(-868 -2671)"><path d="M4778,2804a24,24,0,1,1,16.971-7.03A23.842,23.842,0,0,1,4778,2804Zm-4.942-38.388a16.523,16.523,0,0,0-2.977.271,7.641,7.641,0,0,0-4.935,3.123,8.224,8.224,0,0,0-1.31,3.368,14.848,14.848,0,0,0-.2,2.395l0,.536c-.02,2.731-.041,5.555-.041,8.372,0,.8.033,1.683.1,2.768a8.853,8.853,0,0,0,1.215,4.159,7.265,7.265,0,0,0,4.037,3.173,10.372,10.372,0,0,0,2.817.5c.733.031,1.476.052,2.194.072l.194.005.6.018a1.794,1.794,0,0,1,.2.024h6.811l.065-.007a1.355,1.355,0,0,1,.157-.012c.273-.012.55-.021.819-.03l.079,0c.619-.02,1.258-.041,1.885-.094a8.343,8.343,0,0,0,4.375-1.539,7.5,7.5,0,0,0,2.9-4.549,12.631,12.631,0,0,0,.282-2.285c.019-.611.04-1.208.062-1.773a1.091,1.091,0,0,1,.013-.129l0-.023,0-.027V2776.1l-.013-.333c-.013-.328-.028-.708-.039-1.08a14.467,14.467,0,0,0-.365-3.109,7.473,7.473,0,0,0-3.361-4.663,7.848,7.848,0,0,0-3.209-1.11,23.52,23.52,0,0,0-2.677-.19c-1.583-.009-3.181-.014-4.75-.014s-3.167,0-4.75.014Zm4.916,26.24h0v-.039h-.222l-.87,0h-.123q-.607,0-1.215,0c-.45,0-.848,0-1.215-.008-.931-.018-1.919-.063-3.021-.14a5.932,5.932,0,0,1-2.088-.539,4.717,4.717,0,0,1-2.568-2.89,8.217,8.217,0,0,1-.389-2.238c-.117-2.432-.1-4.9-.087-7.295,0-.743.01-1.607.01-2.456,0-.929.054-1.865.107-2.657a6.3,6.3,0,0,1,.785-2.813,4.852,4.852,0,0,1,3.128-2.283,11.291,11.291,0,0,1,2.341-.28c1.317-.049,2.756-.071,4.53-.071.969,0,1.955.007,2.908.013h.256l1.454.009c1.017.006,2.022.071,2.966.136a5.961,5.961,0,0,1,2.115.541,4.721,4.721,0,0,1,2.649,3.145,8.562,8.562,0,0,1,.313,1.983c.116,2.412.1,4.865.085,7.238v.14c0,.764-.009,1.555-.009,2.331,0,.879-.05,1.743-.108,2.7a6.8,6.8,0,0,1-.456,2.11,4.756,4.756,0,0,1-3.25,2.909,8.192,8.192,0,0,1-2.1.314c-1.661.042-3.4.077-4.929.108l-.992.021Zm.022-19.27a7.406,7.406,0,0,0-.006,14.812H4778a7.406,7.406,0,0,0,.011-14.812Zm7.676-2a1.725,1.725,0,1,0,.012,0ZM4778,2784.8h-.007a4.812,4.812,0,0,1,.006-9.624h.011a4.812,4.812,0,0,1-.01,9.624Z" transform="translate(-3886 -85)"/></g></svg>